<svg id="Layer_1" enable-background="new 0 0 512 512" height="512" viewBox="0 0 512 512" width="512" xmlns="http://www.w3.org/2000/svg"><g><path d="m435.32 122.413-73.82 6.795v41.417h-44v-37.336c-20.447 1.594-41.041 2.414-61.5 2.414s-41.053-.82-61.5-2.414v37.336h-44v-41.417l-73.819-6.795c-5.604-.516-11.096-1.495-16.431-2.91v51.122h-3.25c-8.284 0-15 6.716-15 15s6.716 15 15 15h3.25v191.887c3.367-.496 6.808-.762 10.311-.762h69.629c3.503 0 6.944.266 10.311.762v-191.887h211v191.887c3.367-.496 6.808-.762 10.311-.762h69.629c3.503 0 6.944.266 10.311.762v-191.887h3.248c8.284 0 15-6.716 15-15s-6.716-15-15-15h-3.25v-51.122c-5.334 1.415-10.826 2.394-16.43 2.91z"/><path d="m70.56 421.75c-22.296 0-40.436 18.139-40.436 40.436v34.814c0 8.284 6.716 15 15 15h120.5c8.284 0 15-6.716 15-15v-34.814c0-22.296-18.139-40.436-40.436-40.436z"/><path d="m371.81 421.75c-22.296 0-40.436 18.139-40.436 40.436v34.814c0 8.284 6.716 15 15 15h120.5c8.284 0 15-6.716 15-15v-34.814c0-22.296-18.139-40.436-40.436-40.436z"/><path d="m79.431 92.539 93.262 8.584c27.639 3.053 55.474 4.58 83.307 4.58s55.668-1.527 83.307-4.58l93.262-8.584c20.769-1.912 39.324-12.955 50.91-30.297l25.994-38.91c3.199-4.788 3.374-10.984.452-15.945-2.923-4.961-8.432-7.809-14.165-7.336l-179.489 14.896c-39.993 3.319-80.55 3.319-120.542 0l-179.488-14.896c-5.736-.471-11.243 2.375-14.165 7.336s-2.747 11.157.452 15.945l25.994 38.91c11.584 17.342 30.14 28.385 50.909 30.297z"/></g></svg>