<?xml version="1.0" encoding="iso-8859-1"?>
<!-- Generator: Adobe Illustrator 19.0.0, SVG Export Plug-In . SVG Version: 6.00 Build 0)  -->
<svg version="1.1" id="Capa_1" xmlns="http://www.w3.org/2000/svg" xmlns:xlink="http://www.w3.org/1999/xlink" x="0px" y="0px"
	 viewBox="0 0 426.667 426.667" style="enable-background:new 0 0 426.667 426.667;" xml:space="preserve">
<g>
	<g>
		<path d="M426.667,170.667V85.333c0-23.573-19.093-42.667-42.667-42.667H42.667c-23.573,0-42.453,19.093-42.453,42.667v85.333
			c23.467,0.107,42.453,19.2,42.453,42.667c0,23.573-19.093,42.667-42.56,42.667L0,341.333C0,364.907,19.093,384,42.667,384H384
			c23.573,0,42.667-19.093,42.667-42.667V256C403.093,256,384,236.907,384,213.333S403.093,170.667,426.667,170.667z
			 M234.667,330.667H192V288h42.667V330.667z M234.667,234.667H192V192h42.667V234.667z M234.667,138.667H192V96h42.667V138.667z"/>
	</g>
</g>
<g>
</g>
<g>
</g>
<g>
</g>
<g>
</g>
<g>
</g>
<g>
</g>
<g>
</g>
<g>
</g>
<g>
</g>
<g>
</g>
<g>
</g>
<g>
</g>
<g>
</g>
<g>
</g>
<g>
</g>
</svg>
